# xmcd
#
# Track frame offsets:
#	150
#	5394
#	19398
#	31159
#	41480
#	51569
#	63053
#	73247
#	87228
#	96649
#	110450
#
# Disc length: 1845 seconds
#
# Revision: 1
# Processed by: cddbd v1.5.2PL0 Copyright (c) Steve Scherf et al.
# Submitted via: audiograbber 1.83.01
#
DISCID=9307330b
DTITLE=Slim Wild Boar and His Forsaken Shadow - Water On A Dirty Ground
DYEAR=2010
DGENRE=Country
TTITLE0=Water On A Dirty Ground
TTITLE1=My City
TTITLE2=Walking Like A Boar
TTITLE3=When The Rain Calls My Name
TTITLE4=My Old Devils
TTITLE5=Last Chance Creek
TTITLE6=I'm Gonna Shoot You Down
TTITLE7=Nobody Knows My Name
TTITLE8=Alone
TTITLE9=Back From Hll
TTITLE10=Last Night
EXTD=
EXTT0=
EXTT1=
EXTT2=
EXTT3=
EXTT4=
EXTT5=
EXTT6=
EXTT7=
EXTT8=
EXTT9=
EXTT10=
PLAYORDER=
